<svg width="1000" height="1415" version="1.1" viewBox="0 0 1000 1415" encoding="UTF-8" xmlns="http://www.w3.org/2000/svg"><rect x="0" y="0" height="100%" width="100%" fill="#ffffff" /><defs>
<g id="shuzi_b_5" transform="translate(-50,-50)"><rect height="17.9" width="11.1" y="41.05" x="44.45" stroke-width="0" fill="#ffffff"/><path fill="black" d="m48.01051,46.989c0.65007,-0.30746 1.43137,-0.4612 2.34499,-0.4612c0.72037,0 1.41217,0.13176 2.07542,0.39531c0.66326,0.26355 1.24911,0.65228 1.75917,1.16618c0.50953,0.51392 0.91362,1.15081 1.21231,1.91015c0.29813,0.75989 0.44802,1.63618 0.44802,2.62886c0,0.87848 -0.14274,1.69767 -0.42826,2.45756s-0.6874,1.4182 -1.20571,1.97659s-1.14862,0.99488 -1.89038,1.31113c-0.74287,0.31626 -1.56591,0.47438 -2.47073,0.47438c-0.73794,0 -1.43194,-0.112 -2.08201,-0.33601c-0.65008,-0.22401 -1.22768,-0.56443 -1.73281,-1.02124c-0.50513,-0.45681 -0.92461,-1.02782 -1.25842,-1.71304s-0.54466,-1.48902 -0.63251,-2.41143l3.18889,0c0.05271,0.48315 0.15374,0.90484 0.30307,1.26502c0.14935,0.36017 0.33602,0.65886 0.56004,0.89605c0.224,0.23719 0.47657,0.41289 0.75768,0.52708c0.28111,0.11421 0.5798,0.1713 0.89606,0.1713c0.42166,0 0.8038,-0.08784 1.14641,-0.26354c0.3426,-0.1757 0.6369,-0.41947 0.88287,-0.73134c0.24597,-0.31131 0.43704,-0.67423 0.57321,-1.08657s0.20425,-0.85652 0.20425,-1.3309c0,-0.5798 -0.07029,-1.08931 -0.21084,-1.52856c-0.14056,-0.43924 -0.33602,-0.80546 -0.5864,-1.1003c-0.25036,-0.29428 -0.54905,-0.51775 -0.89605,-0.67204c-0.34699,-0.15374 -0.73133,-0.23061 -1.15301,-0.23061c-0.97512,0 -1.85798,0.44363 -2.64862,1.3309l-2.43724,0l0.76428,-9.46071l9.59248,0l0,2.89899l-6.85162,0l-0.22456,2.93797z"/></g><g id="shuzi_b_6" transform="translate(-50,-50)"><rect height="17.9" width="11.1" y="41.05" x="44.45" stroke-width="0" fill="#ffffff"/><path fill="black" d="m50.29938,43.72362c-0.35482,0 -0.68151,0.10386 -0.98061,0.31155c-0.29856,0.2077 -0.56468,0.50194 -0.79834,0.88272c-0.23367,0.38078 -0.43704,0.84377 -0.61011,1.38898s-0.30344,1.15532 -0.38943,1.83033c0.44947,-0.3202 0.91896,-0.57983 1.40845,-0.77886c0.48895,-0.19905 1.00603,-0.29858 1.55123,-0.29858c0.79619,0 1.51394,0.15578 2.15433,0.46732c0.64039,0.31155 1.18778,0.73776 1.64212,1.27864c0.45434,0.54089 0.80212,1.16831 1.04499,1.88227c0.24177,0.71396 0.36347,1.47335 0.36347,2.27765s-0.12983,1.56638 -0.38943,2.28468c-0.25963,0.71828 -0.62742,1.34354 -1.1034,1.87576s-1.04931,0.95412 -1.71999,1.26567c-0.6707,0.31154 -1.4171,0.46732 -2.23925,0.46732c-0.94329,0 -1.78274,-0.19039 -2.51834,-0.57117c-0.73504,-0.38079 -1.35436,-0.92815 -1.85629,-1.64212c-0.50194,-0.71395 -0.88489,-1.58586 -1.1483,-2.6157c-0.26395,-1.02983 -0.39592,-2.19759 -0.39592,-3.50436c0,-1.52257 0.12764,-2.86829 0.38295,-4.03659c0.25528,-1.1683 0.63607,-2.14838 1.14233,-2.94022c0.50627,-0.79185 1.13964,-1.3906 1.90173,-1.79789c0.76102,-0.40674 1.64861,-0.61011 2.66059,-0.61011c0.65771,0 1.26999,0.10385 1.83683,0.31154c0.5663,0.2077 1.07257,0.51492 1.51878,0.92166c0.44516,0.40674 0.81783,0.9195 1.11584,1.53827c0.29857,0.61877 0.50789,1.3349 0.62959,2.14838l-3.16686,0c-0.18065,-1.55828 -0.86,-2.33715 -2.03695,-2.33715zm-0.18174,6.03569c-0.90003,0 -1.81357,0.463 -2.73849,1.38844c0.02596,0.79618 0.1098,1.51015 0.25314,2.14189c0.1428,0.63175 0.33264,1.1683 0.57117,1.60966c0.23745,0.44136 0.52573,0.78103 0.86325,1.01902c0.33751,0.23798 0.71395,0.35697 1.12935,0.35697c0.36347,0 0.68962,-0.0822 0.98008,-0.24663c0.2899,-0.16443 0.53656,-0.3916 0.73991,-0.68151s0.35915,-0.62742 0.46733,-1.01253c0.10818,-0.38457 0.16225,-0.79834 0.16225,-1.23969c0,-0.45001 -0.05624,-0.87623 -0.16874,-1.27864c-0.11305,-0.40241 -0.27531,-0.75723 -0.48679,-1.06446c-0.21257,-0.30667 -0.46733,-0.54953 -0.76589,-0.72693c-0.2991,-0.17687 -0.63444,-0.26558 -1.00658,-0.26558z"/></g><g id="shuzi_b_3" transform="translate(-50,-50)"><rect height="17.9" width="11.1" y="41.05" x="44.45" stroke-width="0" fill="#ffffff"/><path fill="black" d="m54.93183,45.6956c0,0.30541 -0.03266,0.61626 -0.09799,0.93421c-0.06533,0.31793 -0.16333,0.62716 -0.29398,0.92767c-0.13066,0.30051 -0.29398,0.58361 -0.48997,0.84929c-0.19599,0.26566 -0.42464,0.49868 -0.68596,0.69902c0.38327,0.20034 0.72298,0.45513 1.01915,0.76435c0.29561,0.30923 0.54441,0.65548 0.74475,1.03874c0.20035,0.38326 0.35278,0.79266 0.4573,1.2282c0.10453,0.43553 0.1568,0.87977 0.1568,1.33272c0,0.80138 -0.14809,1.53743 -0.44425,2.20814s-0.7012,1.24562 -1.21513,1.72415c-0.51393,0.47909 -1.12366,0.85146 -1.82923,1.11714s-1.46338,0.39851 -2.27293,0.39851c-0.81879,0 -1.56791,-0.13066 -2.24733,-0.39198c-0.67942,-0.26131 -1.26957,-0.62933 -1.76989,-1.10406c-0.50087,-0.47473 -0.89937,-1.04963 -1.19553,-1.7247c-0.29616,-0.67453 -0.46602,-1.42582 -0.50957,-2.25388l3.20061,0c0,0.39199 0.05443,0.76219 0.16332,1.11061c0.10888,0.34843 0.27003,0.6533 0.48343,0.91461c0.21342,0.26131 0.47691,0.4682 0.79049,0.62063c0.31358,0.15243 0.67506,0.22865 1.08447,0.22865c0.39198,0 0.74857,-0.06968 1.07141,-0.20905c0.3223,-0.13936 0.59668,-0.33319 0.82316,-0.58143c0.22647,-0.24825 0.40068,-0.54441 0.52263,-0.88848c0.12195,-0.34406 0.18293,-0.72026 0.18293,-1.13019c0,-0.41811 -0.06316,-0.80138 -0.18946,-1.1498c-0.12632,-0.34843 -0.31359,-0.64677 -0.56184,-0.89502c-0.24825,-0.24825 -0.55312,-0.44206 -0.91462,-0.58143c-0.36149,-0.13883 -0.78178,-0.20905 -1.26085,-0.20905l-1.3066,0l0,-2.60012l0.99301,0c0.8188,0 1.43073,-0.21559 1.83576,-0.64677c0.40505,-0.43117 0.60757,-1.01697 0.60757,-1.75736c0,-0.6533 -0.16986,-1.14708 -0.50957,-1.48299c-0.33973,-0.33536 -0.82317,-0.50304 -1.45033,-0.50304c-1.29788,0 -2.03828,0.83622 -2.22121,2.50811l-3.16195,0c0.09582,-0.83621 0.29562,-1.57227 0.60104,-2.20814c0.30487,-0.63533 0.69249,-1.1694 1.16286,-1.60057c0.47037,-0.43118 1.00988,-0.75566 1.62017,-0.97342c0.60974,-0.21777 1.26303,-0.32664 1.95988,-0.32664c0.78396,0 1.4917,0.11324 2.12321,0.33971c0.63153,0.22647 1.17158,0.54441 1.62017,0.9538c0.4486,0.4094 0.79485,0.89502 1.03874,1.45685c0.24335,0.56292 0.3653,1.18356 0.3653,1.86299z"/></g><g id="xiaojiexian" transform="translate(-50,-50)"><rect fill="#ffffff" stroke-width="0" x="45.05" y="35.85" width="9.9" height="28.4"/><rect height="29" width="1.5" y="35.5" x="49.25" stroke-width="null" fill="#1b1b1b"/></g><g id="shuzi_b_2" transform="translate(-50,-50)"><rect height="17.9" width="11.1" y="41.05" x="44.45" stroke-width="0" fill="#ffffff"/><path fill="black" d="m55.87582,58.9208l-11.7522,0c0,-1.51571 0.31466,-2.7472 0.94398,-3.69563c0.34569,-0.50523 0.80661,-1.05922 1.38274,-1.66194c0.57614,-0.60274 1.28968,-1.24979 2.14059,-1.94061c0.75342,-0.61159 1.38939,-1.15672 1.90792,-1.63535c0.51854,-0.47865 0.93513,-0.92792 1.24979,-1.34951c0.31466,-0.42104 0.54068,-0.83541 0.67807,-1.24313s0.20608,-0.84649 0.20608,-1.31626c0,-0.74455 -0.20608,-1.32293 -0.61824,-1.73509c-0.41216,-0.41216 -1.00825,-0.61824 -1.78825,-0.61824c-0.3191,0 -0.62489,0.06426 -0.9174,0.1928c-0.2925,0.12851 -0.55177,0.32131 -0.77779,0.57836c-0.22603,0.25704 -0.41438,0.57393 -0.56507,0.95063c-0.15069,0.37671 -0.24375,0.81768 -0.2792,1.32291l-3.21754,0c0.07092,-0.85977 0.25705,-1.64201 0.55841,-2.34668s0.70245,-1.30296 1.20326,-1.7949c0.5008,-0.49194 1.09246,-0.87307 1.77496,-1.14342c0.68196,-0.27035 1.43592,-0.40551 2.26026,-0.40551c0.88637,0 1.67691,0.12852 2.37326,0.38556c0.6958,0.25705 1.2786,0.61161 1.74837,1.06366c0.46978,0.45205 0.82875,0.98386 1.07695,1.59547c0.24818,0.6116 0.37227,1.27638 0.37227,1.99434c0,0.66478 -0.08864,1.27638 -0.26591,1.83478c-0.17728,0.55843 -0.44318,1.09025 -0.79773,1.59548c-0.33683,0.46091 -0.83762,1.03705 -1.5024,1.72842c-0.66478,0.69138 -1.48024,1.44036 -2.44639,2.24696c-0.28364,0.23932 -0.64706,0.56063 -1.09024,0.96394c-0.44319,0.40329 -0.87751,0.90186 -1.30297,1.49575l7.44499,0l0,2.93723l-0.00056,0z"/></g><g id="yanyinfu" transform="translate(-50,-50)"><rect height="17.9" width="11.1" y="41.05" x="44.45" stroke-width="0" fill="#ffffff"/><rect height="3.2" width="11" y="48.4" x="44.5" stroke-width="null" fill="#1b1b1b"/></g><g id="shuzi_b_0" transform="translate(-50,-50)"><rect height="17.9" width="11.1" y="41.05" x="44.45" stroke-width="0" fill="#ffffff"/><path fill="black" d="m49.99374,41.08005c0.94927,0 1.7798,0.19606 2.48943,0.58818c0.71017,0.39212 1.3027,0.97158 1.77761,1.7384s0.83218,1.71009 1.07181,2.82927c0.23963,1.11972 0.35943,2.40719 0.35943,3.86185c0,2.89299 -0.47707,5.08615 -1.43124,6.58057c-0.95415,1.49442 -2.37614,2.24163 -4.26704,2.24163c-1.89962,0 -3.32215,-0.74721 -4.26759,-2.24163c-0.9449,-1.49442 -1.41818,-3.68758 -1.41818,-6.58057c0,-1.45466 0.11764,-2.74213 0.35292,-3.86185c0.23528,-1.11973 0.58982,-2.063 1.06471,-2.82927s1.06746,-1.34629 1.77817,-1.7384c0.71018,-0.39212 1.54017,-0.58818 2.48997,-0.58818zm0,15.23937c0.41827,0 0.7837,-0.10892 1.09793,-0.32676c0.31371,-0.2173 0.57729,-0.57294 0.79078,-1.06527c0.2135,-0.49232 0.37471,-1.1328 0.48362,-1.9214c0.10893,-0.7886 0.16339,-1.75801 0.16339,-2.90823s-0.05446,-2.13053 -0.16339,-2.94036s-0.27011,-1.47264 -0.48362,-1.98621c-0.21402,-0.51411 -0.47707,-0.89098 -0.79078,-1.13062c-0.31369,-0.23963 -0.67967,-0.35944 -1.09793,-0.35944c-0.40954,0 -0.77117,0.11763 -1.08488,0.35291c-0.31314,0.23527 -0.57892,0.60997 -0.79731,1.12354c-0.21731,0.51411 -0.38123,1.17636 -0.48962,1.98676c-0.10891,0.81038 -0.16338,1.79504 -0.16338,2.95343c0,1.15023 0.05447,2.12181 0.16338,2.91478c0.10839,0.79295 0.27231,1.43341 0.48962,1.9214c0.21785,0.48797 0.48417,0.84087 0.79731,1.05873c0.31371,0.21784 0.67533,0.32676 1.08488,0.32676z"/></g><g id="shuzi_b_1" transform="translate(-50,-50)"><rect height="17.9" width="11.1" y="41.05" x="44.45" stroke-width="0" fill="#ffffff"/><path fill="black" d="m51.67429,58.96851l-3.22071,0l0,-12.75941c-0.95127,0.34427 -2.26945,0.5164 -3.95398,0.5164l0,-2.70432c2.64486,0 4.15782,-0.99656 4.53833,-2.98969l2.63636,0l0,17.93701l0,0.00001z"/></g><g id="yingao_di" transform="translate(-50,-50)"><ellipse ry="1.9" rx="1.9" cy="63" cx="49.3" fill="#1b1b1b"/></g><g id="fudian" transform="translate(-50,-50)"><ellipse fill="#1b1b1b" cx="62.35" cy="49.75" rx="2.45" ry="2.45"/></g><g id="yingao_gao" transform="translate(-50,-50)"><ellipse ry="1.9" rx="1.9" cy="36" cx="49.3" fill="#1b1b1b"/></g></defs>
<use x="83" y="130" xlink:href="#shuzi_b_5" time="0.5" audio="5," notepos="1_1_1" code="5,/" xmlns:xlink="http://www.w3.org/1999/xlink" ></use>
<text x="74" y="165" dy="6.039" fill="#101010" font-size="18" font-family="Microsoft YaHei" cipos="1_1_1" >孩</text>
<use x="116.18652849741" y="130" xlink:href="#shuzi_b_6" time="1.5" audio="6," notepos="1_1_2" code="6,." xmlns:xlink="http://www.w3.org/1999/xlink" ></use>
<text x="107.18652849741" y="165" dy="6.039" fill="#101010" font-size="18" font-family="Microsoft YaHei" cipos="1_1_2" >童</text>
<use x="160.43523316062" y="130" xlink:href="#shuzi_b_6" time="0.75" audio="6" notepos="1_1_3" code="6./~" xmlns:xlink="http://www.w3.org/1999/xlink" ></use>
<text x="151.43523316062" y="165" dy="6.039" fill="#101010" font-size="18" font-family="Microsoft YaHei" cipos="1_1_3" >怀</text>
<use x="193.62176165803" y="130" xlink:href="#shuzi_b_3" time="0.25" audio="3" notepos="1_1_4" code="3//" xmlns:xlink="http://www.w3.org/1999/xlink" ></use>
<text x="184.62176165803" y="165" dy="6.039" fill="#101010" font-size="18" font-family="Microsoft YaHei" cipos="1_1_4" >中</text>
<use x="224.59585492228" y="130" xlink:href="#xiaojiexian" notepos="1_1_5" time="0" audio="" code="|" xmlns:xlink="http://www.w3.org/1999/xlink" ></use>
<use x="255.56994818653" y="130" xlink:href="#shuzi_b_2" time="0.25" audio="2" notepos="1_1_6" code="2(//" xmlns:xlink="http://www.w3.org/1999/xlink" ></use>
<text x="246.56994818653" y="165" dy="6.039" fill="#101010" font-size="18" font-family="Microsoft YaHei" cipos="1_1_6" >熟</text>
<use x="277.69430051813" y="130" xlink:href="#shuzi_b_3" time="0.25" audio="3" notepos="1_1_7" code="3//)" xmlns:xlink="http://www.w3.org/1999/xlink" ></use>
<use x="299.81865284974" y="130" xlink:href="#shuzi_b_6" time="0.5" audio="6," notepos="1_1_8" code="6(,/" xmlns:xlink="http://www.w3.org/1999/xlink" ></use>
<text x="290.81865284974" y="165" dy="6.039" fill="#101010" font-size="18" font-family="Microsoft YaHei" cipos="1_1_8" >睡</text>
<text x="308.81865284974" y="165" dy="6.039" fill="#101010" font-size="18" font-family="Microsoft YaHei" >，</text>
<use x="333.00518134715" y="130" xlink:href="#shuzi_b_6" time="1.5" audio="0" notepos="1_1_9" code="6,)." xmlns:xlink="http://www.w3.org/1999/xlink" ></use>
<use x="377.25388601036" y="130" xlink:href="#shuzi_b_6" time="0.5" audio="6," notepos="1_1_10" code="6,/" xmlns:xlink="http://www.w3.org/1999/xlink" ></use>
<text x="368.25388601036" y="165" dy="6.039" fill="#101010" font-size="18" font-family="Microsoft YaHei" cipos="1_1_10" >异</text>
<use x="408.22797927461" y="130" xlink:href="#xiaojiexian" notepos="1_1_11" time="0" audio="" code="|" xmlns:xlink="http://www.w3.org/1999/xlink" ></use>
<use x="439.20207253886" y="130" xlink:href="#shuzi_b_3" time="0.5" audio="3" notepos="1_1_12" code="3/" xmlns:xlink="http://www.w3.org/1999/xlink" ></use>
<text x="430.20207253886" y="165" dy="6.039" fill="#101010" font-size="18" font-family="Microsoft YaHei" cipos="1_1_12" >乡</text>
<use x="461.32642487047" y="130" xlink:href="#shuzi_b_2" time="0.5" audio="2" notepos="1_1_13" code="2(/" xmlns:xlink="http://www.w3.org/1999/xlink" ></use>
<text x="452.32642487047" y="165" dy="6.039" fill="#101010" font-size="18" font-family="Microsoft YaHei" cipos="1_1_13" >人</text>
<use x="494.51295336788" y="130" xlink:href="#shuzi_b_2" time="1.5" audio="0" notepos="1_1_14" code="2.)" xmlns:xlink="http://www.w3.org/1999/xlink" ></use>
<use x="538.76165803109" y="130" xlink:href="#shuzi_b_5" time="0.5" audio="5," notepos="1_1_15" code="5,/" xmlns:xlink="http://www.w3.org/1999/xlink" ></use>
<text x="529.76165803109" y="165" dy="6.039" fill="#101010" font-size="18" font-family="Microsoft YaHei" cipos="1_1_15" >异</text>
<use x="569.73575129534" y="130" xlink:href="#xiaojiexian" notepos="1_1_16" time="0" audio="" code="|" xmlns:xlink="http://www.w3.org/1999/xlink" ></use>
<use x="600.70984455959" y="130" xlink:href="#shuzi_b_5" time="0.25" audio="5" notepos="1_1_17" code="5(//" xmlns:xlink="http://www.w3.org/1999/xlink" ></use>
<text x="591.70984455959" y="165" dy="6.039" fill="#101010" font-size="18" font-family="Microsoft YaHei" cipos="1_1_17" >乡</text>
<use x="622.83419689119" y="130" xlink:href="#shuzi_b_6" time="0.25" audio="6" notepos="1_1_18" code="6//" xmlns:xlink="http://www.w3.org/1999/xlink" ></use>
<use x="644.9585492228" y="130" xlink:href="#shuzi_b_5" time="0.25" audio="5" notepos="1_1_19" code="5//)" xmlns:xlink="http://www.w3.org/1999/xlink" ></use>
<use x="667.0829015544" y="130" xlink:href="#shuzi_b_5" time="0.25" audio="5" notepos="1_1_20" code="5(//" xmlns:xlink="http://www.w3.org/1999/xlink" ></use>
<text x="658.0829015544" y="165" dy="6.039" fill="#101010" font-size="18" font-family="Microsoft YaHei" cipos="1_1_20" >人</text>
<text x="676.0829015544" y="165" dy="6.039" fill="#101010" font-size="18" font-family="Microsoft YaHei" >。</text>
<use x="700.26943005181" y="130" xlink:href="#shuzi_b_5" time="1" audio="0" notepos="1_1_21" code="5()" xmlns:xlink="http://www.w3.org/1999/xlink" ></use>
<use x="733.45595854922" y="130" xlink:href="#yanyinfu" time="1" audio="" notepos="1_1_22" code="-" xmlns:xlink="http://www.w3.org/1999/xlink" ></use>
<use x="764.43005181347" y="130" xlink:href="#xiaojiexian" notepos="1_1_23" time="0" audio="" code="|" xmlns:xlink="http://www.w3.org/1999/xlink" ></use>
<use x="795.40414507772" y="130" xlink:href="#shuzi_b_5" time="1" audio="0" notepos="1_1_24" code="5)" xmlns:xlink="http://www.w3.org/1999/xlink" ></use>
<use x="828.59067357513" y="130" xlink:href="#shuzi_b_0" time="1" audio="0" notepos="1_1_25" code="0" xmlns:xlink="http://www.w3.org/1999/xlink" ></use>
<use x="861.77720207254" y="130" xlink:href="#shuzi_b_5" time="0.5" audio="5," notepos="1_1_26" code="5,/" xmlns:xlink="http://www.w3.org/1999/xlink" ></use>
<text x="852.77720207254" y="165" dy="6.039" fill="#101010" font-size="18" font-family="Microsoft YaHei" cipos="1_1_26" >谁</text>
<use x="883.90155440415" y="130" xlink:href="#shuzi_b_6" time="0.5" audio="6," notepos="1_1_27" code="6,/" xmlns:xlink="http://www.w3.org/1999/xlink" ></use>
<text x="874.90155440415" y="165" dy="6.039" fill="#101010" font-size="18" font-family="Microsoft YaHei" cipos="1_1_27" >家</text>
<use x="923" y="130" xlink:href="#xiaojiexian" notepos="1_1_28" time="0" audio="" code="|" xmlns:xlink="http://www.w3.org/1999/xlink" ></use>
<use x="83" y="205" xlink:href="#shuzi_b_1" time="1.5" audio="1" notepos="1_2_1" code="1." xmlns:xlink="http://www.w3.org/1999/xlink" ></use>
<text x="74" y="240" dy="6.039" fill="#101010" font-size="18" font-family="Microsoft YaHei" cipos="1_2_1" >新</text>
<use x="136.7106918239" y="205" xlink:href="#shuzi_b_2" time="0.5" audio="2" notepos="1_2_2" code="2/" xmlns:xlink="http://www.w3.org/1999/xlink" ></use>
<text x="127.7106918239" y="240" dy="6.039" fill="#101010" font-size="18" font-family="Microsoft YaHei" cipos="1_2_2" >燕</text>
<use x="176.99371069182" y="205" xlink:href="#shuzi_b_3" time="0.5" audio="3" notepos="1_2_3" code="3/" xmlns:xlink="http://www.w3.org/1999/xlink" ></use>
<text x="167.99371069182" y="240" dy="6.039" fill="#101010" font-size="18" font-family="Microsoft YaHei" cipos="1_2_3" >啄</text>
<use x="203.84905660377" y="205" xlink:href="#shuzi_b_5" time="0.25" audio="5" notepos="1_2_4" code="5(//" xmlns:xlink="http://www.w3.org/1999/xlink" ></use>
<text x="194.84905660377" y="240" dy="6.039" fill="#101010" font-size="18" font-family="Microsoft YaHei" cipos="1_2_4" >春</text>
<use x="230.70440251572" y="205" xlink:href="#shuzi_b_3" time="0.25" audio="3" notepos="1_2_5" code="3//)" xmlns:xlink="http://www.w3.org/1999/xlink" ></use>
<use x="268.30188679245" y="205" xlink:href="#xiaojiexian" notepos="1_2_6" time="0" audio="" code="|" xmlns:xlink="http://www.w3.org/1999/xlink" ></use>
<use x="305.89937106918" y="205" xlink:href="#shuzi_b_3" time="1" audio="3" notepos="1_2_7" code="3(" xmlns:xlink="http://www.w3.org/1999/xlink" ></use>
<text x="296.89937106918" y="240" dy="6.039" fill="#101010" font-size="18" font-family="Microsoft YaHei" cipos="1_2_7" >泥</text>
<text x="314.89937106918" y="240" dy="6.039" fill="#101010" font-size="18" font-family="Microsoft YaHei" >，</text>
<use x="346.18238993711" y="205" xlink:href="#yanyinfu" time="1" audio="" notepos="1_2_8" code="-" xmlns:xlink="http://www.w3.org/1999/xlink" ></use>
<use x="386.46540880503" y="205" xlink:href="#shuzi_b_3" time="0.5" audio="0" notepos="1_2_9" code="3/)" xmlns:xlink="http://www.w3.org/1999/xlink" ></use>
<use x="413.32075471698" y="205" xlink:href="#shuzi_b_2" time="0.25" audio="2" notepos="1_2_10" code="2(//" xmlns:xlink="http://www.w3.org/1999/xlink" ></use>
<text x="404.32075471698" y="240" dy="6.039" fill="#101010" font-size="18" font-family="Microsoft YaHei" cipos="1_2_10" >垒</text>
<use x="440.17610062893" y="205" xlink:href="#shuzi_b_3" time="0.25" audio="3" notepos="1_2_11" code="3//)" xmlns:xlink="http://www.w3.org/1999/xlink" ></use>
<use x="477.77358490566" y="205" xlink:href="#xiaojiexian" notepos="1_2_12" time="0" audio="" code="|" xmlns:xlink="http://www.w3.org/1999/xlink" ></use>
<use x="515.37106918239" y="205" xlink:href="#shuzi_b_2" time="1.5" audio="2" notepos="1_2_13" code="2." xmlns:xlink="http://www.w3.org/1999/xlink" ></use>
<text x="506.37106918239" y="240" dy="6.039" fill="#101010" font-size="18" font-family="Microsoft YaHei" cipos="1_2_13" >在</text>
<use x="569.08176100629" y="205" xlink:href="#shuzi_b_3" time="0.5" audio="3" notepos="1_2_14" code="3/" xmlns:xlink="http://www.w3.org/1999/xlink" ></use>
<text x="560.08176100629" y="240" dy="6.039" fill="#101010" font-size="18" font-family="Microsoft YaHei" cipos="1_2_14" >那</text>
<use x="609.36477987421" y="205" xlink:href="#shuzi_b_2" time="0.25" audio="2" notepos="1_2_15" code="2(//" xmlns:xlink="http://www.w3.org/1999/xlink" ></use>
<text x="600.36477987421" y="240" dy="6.039" fill="#101010" font-size="18" font-family="Microsoft YaHei" cipos="1_2_15" >榕</text>
<use x="636.22012578616" y="205" xlink:href="#shuzi_b_1" time="0.25" audio="1" notepos="1_2_16" code="1//)" xmlns:xlink="http://www.w3.org/1999/xlink" ></use>
<use x="663.07547169811" y="205" xlink:href="#shuzi_b_6" time="0.25" audio="6," notepos="1_2_17" code="6(,//" xmlns:xlink="http://www.w3.org/1999/xlink" ></use>
<text x="654.07547169811" y="240" dy="6.039" fill="#101010" font-size="18" font-family="Microsoft YaHei" cipos="1_2_17" >树</text>
<use x="689.93081761006" y="205" xlink:href="#shuzi_b_5" time="0.25" audio="5," notepos="1_2_18" code="5,//)" xmlns:xlink="http://www.w3.org/1999/xlink" ></use>
<use x="727.52830188679" y="205" xlink:href="#xiaojiexian" notepos="1_2_19" time="0" audio="" code="|" xmlns:xlink="http://www.w3.org/1999/xlink" ></use>
<use x="765.12578616352" y="205" xlink:href="#shuzi_b_5" time="1" audio="5," notepos="1_2_20" code="5," xmlns:xlink="http://www.w3.org/1999/xlink" ></use>
<text x="756.12578616352" y="240" dy="6.039" fill="#101010" font-size="18" font-family="Microsoft YaHei" cipos="1_2_20" >上</text>
<text x="774.12578616352" y="240" dy="6.039" fill="#101010" font-size="18" font-family="Microsoft YaHei" >。</text>
<use x="805.40880503145" y="205" xlink:href="#yanyinfu" time="1" audio="" notepos="1_2_21" code="-" xmlns:xlink="http://www.w3.org/1999/xlink" ></use>
<use x="845.69182389937" y="205" xlink:href="#shuzi_b_5" time="0.5" audio="5," notepos="1_2_22" code="5,/" xmlns:xlink="http://www.w3.org/1999/xlink" ></use>
<text x="836.69182389937" y="240" dy="6.039" fill="#101010" font-size="18" font-family="Microsoft YaHei" cipos="1_2_22" >门</text>
<use x="872.54716981132" y="205" xlink:href="#shuzi_b_6" time="0.5" audio="6," notepos="1_2_23" code="6,/" xmlns:xlink="http://www.w3.org/1999/xlink" ></use>
<text x="863.54716981132" y="240" dy="6.039" fill="#101010" font-size="18" font-family="Microsoft YaHei" cipos="1_2_23" >前</text>
<use x="923" y="205" xlink:href="#xiaojiexian" notepos="1_2_24" time="0" audio="" code="|" xmlns:xlink="http://www.w3.org/1999/xlink" ></use>
<use x="83" y="280" xlink:href="#shuzi_b_1" time="1.5" audio="1" notepos="1_3_1" code="1." xmlns:xlink="http://www.w3.org/1999/xlink" ></use>
<text x="74" y="315" dy="6.039" fill="#101010" font-size="18" font-family="Microsoft YaHei" cipos="1_3_1" >一</text>
<use x="144.43884892086" y="280" xlink:href="#shuzi_b_2" time="0.5" audio="2" notepos="1_3_2" code="2/" xmlns:xlink="http://www.w3.org/1999/xlink" ></use>
<text x="135.43884892086" y="315" dy="6.039" fill="#101010" font-size="18" font-family="Microsoft YaHei" cipos="1_3_2" >条</text>
<use x="190.51798561151" y="280" xlink:href="#shuzi_b_3" time="0.5" audio="3" notepos="1_3_3" code="3(/" xmlns:xlink="http://www.w3.org/1999/xlink" ></use>
<text x="181.51798561151" y="315" dy="6.039" fill="#101010" font-size="18" font-family="Microsoft YaHei" cipos="1_3_3" >小</text>
<use x="221.23741007194" y="280" xlink:href="#shuzi_b_1" time="0.25" audio="1'" notepos="1_3_4" code="1'//" xmlns:xlink="http://www.w3.org/1999/xlink" ></use>
<use x="251.95683453237" y="280" xlink:href="#shuzi_b_6" time="0.25" audio="6" notepos="1_3_5" code="6//)" xmlns:xlink="http://www.w3.org/1999/xlink" ></use>
<use x="294.96402877698" y="280" xlink:href="#xiaojiexian" notepos="1_3_6" time="0" audio="" code="|" xmlns:xlink="http://www.w3.org/1999/xlink" ></use>
<use x="337.97122302158" y="280" xlink:href="#shuzi_b_6" time="1" audio="6" notepos="1_3_7" code="6" xmlns:xlink="http://www.w3.org/1999/xlink" ></use>
<text x="328.97122302158" y="315" dy="6.039" fill="#101010" font-size="18" font-family="Microsoft YaHei" cipos="1_3_7" >溪</text>
<text x="346.97122302158" y="315" dy="6.039" fill="#101010" font-size="18" font-family="Microsoft YaHei" >，</text>
<use x="384.05035971223" y="280" xlink:href="#yanyinfu" time="1" audio="" notepos="1_3_8" code="-" xmlns:xlink="http://www.w3.org/1999/xlink" ></use>
<use x="430.12949640288" y="280" xlink:href="#shuzi_b_5" time="0.5" audio="5" notepos="1_3_9" code="5(/" xmlns:xlink="http://www.w3.org/1999/xlink" ></use>
<text x="421.12949640288" y="315" dy="6.039" fill="#101010" font-size="18" font-family="Microsoft YaHei" cipos="1_3_9" >村</text>
<use x="460.84892086331" y="280" xlink:href="#shuzi_b_3" time="0.5" audio="3" notepos="1_3_10" code="3/)" xmlns:xlink="http://www.w3.org/1999/xlink" ></use>
<use x="503.85611510791" y="280" xlink:href="#xiaojiexian" notepos="1_3_11" time="0" audio="" code="|" xmlns:xlink="http://www.w3.org/1999/xlink" ></use>
<use x="546.86330935252" y="280" xlink:href="#shuzi_b_2" time="1.5" audio="2" notepos="1_3_12" code="2." xmlns:xlink="http://www.w3.org/1999/xlink" ></use>
<text x="537.86330935252" y="315" dy="6.039" fill="#101010" font-size="18" font-family="Microsoft YaHei" cipos="1_3_12" >口</text>
<use x="608.30215827338" y="280" xlink:href="#shuzi_b_1" time="0.5" audio="1" notepos="1_3_13" code="1/" xmlns:xlink="http://www.w3.org/1999/xlink" ></use>
<text x="599.30215827338" y="315" dy="6.039" fill="#101010" font-size="18" font-family="Microsoft YaHei" cipos="1_3_13" >躺</text>
<use x="654.38129496403" y="280" xlink:href="#shuzi_b_6" time="0.5" audio="6," notepos="1_3_14" code="6,/" xmlns:xlink="http://www.w3.org/1999/xlink" ></use>
<text x="645.38129496403" y="315" dy="6.039" fill="#101010" font-size="18" font-family="Microsoft YaHei" cipos="1_3_14" >着</text>
<use x="685.10071942446" y="280" xlink:href="#shuzi_b_3" time="0.5" audio="3" notepos="1_3_15" code="3/" xmlns:xlink="http://www.w3.org/1999/xlink" ></use>
<text x="676.10071942446" y="315" dy="6.039" fill="#101010" font-size="18" font-family="Microsoft YaHei" cipos="1_3_15" >大</text>
<use x="728.10791366906" y="280" xlink:href="#xiaojiexian" notepos="1_3_16" time="0" audio="" code="|" xmlns:xlink="http://www.w3.org/1999/xlink" ></use>
<use x="771.11510791367" y="280" xlink:href="#shuzi_b_2" time="1" audio="2" notepos="1_3_17" code="2" xmlns:xlink="http://www.w3.org/1999/xlink" ></use>
<text x="762.11510791367" y="315" dy="6.039" fill="#101010" font-size="18" font-family="Microsoft YaHei" cipos="1_3_17" >黄</text>
<use x="817.19424460432" y="280" xlink:href="#yanyinfu" time="1" audio="" notepos="1_3_18" code="-" xmlns:xlink="http://www.w3.org/1999/xlink" ></use>
<use x="863.27338129496" y="280" xlink:href="#shuzi_b_0" time="1" audio="0" notepos="1_3_19" code="0" xmlns:xlink="http://www.w3.org/1999/xlink" ></use>
<text x="854.27338129496" y="315" dy="6.039" fill="#101010" font-size="18" font-family="Microsoft YaHei" cipos="1_3_19" ></text>
<use x="923" y="280" xlink:href="#xiaojiexian" notepos="1_3_20" time="0" audio="" code="|" xmlns:xlink="http://www.w3.org/1999/xlink" ></use>
<line x1="77" y1="143" x2="89" y2="143" data-type="jianshixian" stroke-width="2" stroke="#1b1b1b" ></line>
<line x1="154.43523316062" y1="143" x2="199.62176165803" y2="143" data-type="jianshixian" stroke-width="2" stroke="#1b1b1b" ></line>
<line x1="187.62176165803" y1="146" x2="199.62176165803" y2="146" data-type="jianshixian" stroke-width="2" stroke="#1b1b1b" ></line>
<line x1="249.56994818653" y1="143" x2="305.81865284974" y2="143" data-type="jianshixian" stroke-width="2" stroke="#1b1b1b" ></line>
<line x1="249.56994818653" y1="146" x2="283.69430051813" y2="146" data-type="jianshixian" stroke-width="2" stroke="#1b1b1b" ></line>
<line x1="371.25388601036" y1="143" x2="383.25388601036" y2="143" data-type="jianshixian" stroke-width="2" stroke="#1b1b1b" ></line>
<line x1="433.20207253886" y1="143" x2="467.32642487047" y2="143" data-type="jianshixian" stroke-width="2" stroke="#1b1b1b" ></line>
<line x1="532.76165803109" y1="143" x2="544.76165803109" y2="143" data-type="jianshixian" stroke-width="2" stroke="#1b1b1b" ></line>
<line x1="594.70984455959" y1="143" x2="673.0829015544" y2="143" data-type="jianshixian" stroke-width="2" stroke="#1b1b1b" ></line>
<line x1="594.70984455959" y1="146" x2="673.0829015544" y2="146" data-type="jianshixian" stroke-width="2" stroke="#1b1b1b" ></line>
<line x1="855.77720207254" y1="143" x2="889.90155440415" y2="143" data-type="jianshixian" stroke-width="2" stroke="#1b1b1b" ></line>
<line x1="130.7106918239" y1="218" x2="142.7106918239" y2="218" data-type="jianshixian" stroke-width="2" stroke="#1b1b1b" ></line>
<line x1="170.99371069182" y1="218" x2="236.70440251572" y2="218" data-type="jianshixian" stroke-width="2" stroke="#1b1b1b" ></line>
<line x1="197.84905660377" y1="221" x2="236.70440251572" y2="221" data-type="jianshixian" stroke-width="2" stroke="#1b1b1b" ></line>
<line x1="380.46540880503" y1="218" x2="446.17610062893" y2="218" data-type="jianshixian" stroke-width="2" stroke="#1b1b1b" ></line>
<line x1="407.32075471698" y1="221" x2="446.17610062893" y2="221" data-type="jianshixian" stroke-width="2" stroke="#1b1b1b" ></line>
<line x1="563.08176100629" y1="218" x2="575.08176100629" y2="218" data-type="jianshixian" stroke-width="2" stroke="#1b1b1b" ></line>
<line x1="603.36477987421" y1="218" x2="695.93081761006" y2="218" data-type="jianshixian" stroke-width="2" stroke="#1b1b1b" ></line>
<line x1="603.36477987421" y1="221" x2="695.93081761006" y2="221" data-type="jianshixian" stroke-width="2" stroke="#1b1b1b" ></line>
<line x1="839.69182389937" y1="218" x2="878.54716981132" y2="218" data-type="jianshixian" stroke-width="2" stroke="#1b1b1b" ></line>
<line x1="138.43884892086" y1="293" x2="150.43884892086" y2="293" data-type="jianshixian" stroke-width="2" stroke="#1b1b1b" ></line>
<line x1="184.51798561151" y1="293" x2="257.95683453237" y2="293" data-type="jianshixian" stroke-width="2" stroke="#1b1b1b" ></line>
<line x1="215.23741007194" y1="296" x2="257.95683453237" y2="296" data-type="jianshixian" stroke-width="2" stroke="#1b1b1b" ></line>
<line x1="424.12949640288" y1="293" x2="466.84892086331" y2="293" data-type="jianshixian" stroke-width="2" stroke="#1b1b1b" ></line>
<line x1="602.30215827338" y1="293" x2="614.30215827338" y2="293" data-type="jianshixian" stroke-width="2" stroke="#1b1b1b" ></line>
<line x1="648.38129496403" y1="293" x2="691.10071942446" y2="293" data-type="jianshixian" stroke-width="2" stroke="#1b1b1b" ></line>
<use x="83" y="135" xlink:href="#yingao_di" xmlns:xlink="http://www.w3.org/1999/xlink" ></use>
<use x="116.18652849741" y="131" xlink:href="#yingao_di" xmlns:xlink="http://www.w3.org/1999/xlink" ></use>
<use x="116.18652849741" y="130" xlink:href="#fudian" xmlns:xlink="http://www.w3.org/1999/xlink" ></use>
<use x="160.43523316062" y="130" xlink:href="#fudian" xmlns:xlink="http://www.w3.org/1999/xlink" ></use>
<use x="299.81865284974" y="135" xlink:href="#yingao_di" xmlns:xlink="http://www.w3.org/1999/xlink" ></use>
<use x="333.00518134715" y="131" xlink:href="#yingao_di" xmlns:xlink="http://www.w3.org/1999/xlink" ></use>
<use x="333.00518134715" y="130" xlink:href="#fudian" xmlns:xlink="http://www.w3.org/1999/xlink" ></use>
<use x="377.25388601036" y="135" xlink:href="#yingao_di" xmlns:xlink="http://www.w3.org/1999/xlink" ></use>
<use x="494.51295336788" y="130" xlink:href="#fudian" xmlns:xlink="http://www.w3.org/1999/xlink" ></use>
<use x="538.76165803109" y="135" xlink:href="#yingao_di" xmlns:xlink="http://www.w3.org/1999/xlink" ></use>
<use x="861.77720207254" y="135" xlink:href="#yingao_di" xmlns:xlink="http://www.w3.org/1999/xlink" ></use>
<use x="883.90155440415" y="135" xlink:href="#yingao_di" xmlns:xlink="http://www.w3.org/1999/xlink" ></use>
<use x="83" y="205" xlink:href="#fudian" xmlns:xlink="http://www.w3.org/1999/xlink" ></use>
<use x="515.37106918239" y="205" xlink:href="#fudian" xmlns:xlink="http://www.w3.org/1999/xlink" ></use>
<use x="663.07547169811" y="214" xlink:href="#yingao_di" xmlns:xlink="http://www.w3.org/1999/xlink" ></use>
<use x="689.93081761006" y="214" xlink:href="#yingao_di" xmlns:xlink="http://www.w3.org/1999/xlink" ></use>
<use x="765.12578616352" y="206" xlink:href="#yingao_di" xmlns:xlink="http://www.w3.org/1999/xlink" ></use>
<use x="845.69182389937" y="210" xlink:href="#yingao_di" xmlns:xlink="http://www.w3.org/1999/xlink" ></use>
<use x="872.54716981132" y="210" xlink:href="#yingao_di" xmlns:xlink="http://www.w3.org/1999/xlink" ></use>
<use x="83" y="280" xlink:href="#fudian" xmlns:xlink="http://www.w3.org/1999/xlink" ></use>
<use x="221.23741007194" y="280" xlink:href="#yingao_gao" xmlns:xlink="http://www.w3.org/1999/xlink" ></use>
<use x="546.86330935252" y="280" xlink:href="#fudian" xmlns:xlink="http://www.w3.org/1999/xlink" ></use>
<use x="654.38129496403" y="285" xlink:href="#yingao_di" xmlns:xlink="http://www.w3.org/1999/xlink" ></use>
<path d="M 256.56994818653,114 C 262.20725388601,104,271.05699481865,104,276.69430051813,114 M 276.69430051813,114 C  271.05699481865,105,262.20725388601,105,256.56994818653,114" stroke-width="0.5" stroke="#1b1b1b" ></path>
<path d="M 300.81865284974,114 C 309.77461139896,104,323.04922279793,104,332.00518134715,114 M 332.00518134715,114 C  323.04922279793,105,309.77461139896,105,300.81865284974,114" stroke-width="0.5" stroke="#1b1b1b" ></path>
<path d="M 462.32642487047,114 C 471.28238341969,104,484.55699481865,104,493.51295336788,114 M 493.51295336788,114 C  484.55699481865,105,471.28238341969,105,462.32642487047,114" stroke-width="0.5" stroke="#1b1b1b" ></path>
<path d="M 601.70984455959,114 C 613.98445595855,104,631.68393782383,104,643.9585492228,114 M 643.9585492228,114 C  631.68393782383,105,613.98445595855,105,601.70984455959,114" stroke-width="0.5" stroke="#1b1b1b" ></path>
<path d="M 668.0829015544,114 C 677.03886010363,104,690.31347150259,104,699.26943005181,114 M 699.26943005181,114 C  690.31347150259,105,677.03886010363,105,668.0829015544,114" stroke-width="0.5" stroke="#1b1b1b" ></path>
<path d="M 701.26943005181,114 C 728.80984455959,104,766.86373056995,104,794.40414507772,114 M 794.40414507772,114 C  766.86373056995,105,728.80984455959,105,701.26943005181,114" stroke-width="0.5" stroke="#1b1b1b" ></path>
<path d="M 204.84905660377,189 C 211.90566037736,179,222.64779874214,179,229.70440251572,189 M 229.70440251572,189 C  222.64779874214,180,211.90566037736,180,204.84905660377,189" stroke-width="0.5" stroke="#1b1b1b" ></path>
<path d="M 306.89937106918,189 C 330.06918238994,179,362.29559748428,179,385.46540880503,189 M 385.46540880503,189 C  362.29559748428,180,330.06918238994,180,306.89937106918,189" stroke-width="0.5" stroke="#1b1b1b" ></path>
<path d="M 414.32075471698,189 C 421.37735849057,179,432.11949685535,179,439.17610062893,189 M 439.17610062893,189 C  432.11949685535,180,421.37735849057,180,414.32075471698,189" stroke-width="0.5" stroke="#1b1b1b" ></path>
<path d="M 610.36477987421,189 C 617.4213836478,179,628.16352201258,179,635.22012578616,189 M 635.22012578616,189 C  628.16352201258,180,617.4213836478,180,610.36477987421,189" stroke-width="0.5" stroke="#1b1b1b" ></path>
<path d="M 664.07547169811,189 C 671.1320754717,179,681.87421383648,179,688.93081761006,189 M 688.93081761006,189 C  681.87421383648,180,671.1320754717,180,664.07547169811,189" stroke-width="0.5" stroke="#1b1b1b" ></path>
<path d="M 191.51798561151,264 C 208.94964028777,254,233.52517985612,254,250.95683453237,264 M 250.95683453237,264 C  233.52517985612,255,208.94964028777,255,191.51798561151,264" stroke-width="0.5" stroke="#1b1b1b" ></path>
<path d="M 431.12949640288,264 C 439.34532374101,254,451.63309352518,254,459.84892086331,264 M 459.84892086331,264 C  451.63309352518,255,439.34532374101,255,431.12949640288,264" stroke-width="0.5" stroke="#1b1b1b" ></path>
<g id="custom"></g></svg>